<?xml version="1.0" standalone="no"?>
<!DOCTYPE svg PUBLIC "-//W3C//DTD SVG 20010904//EN"
 "http://www.w3.org/TR/2001/REC-SVG-20010904/DTD/svg10.dtd">
<svg version="1.0" xmlns="http://www.w3.org/2000/svg"
 width="180.000000pt" height="180.000000pt" viewBox="0 0 180.000000 180.000000"
 preserveAspectRatio="xMidYMid meet">

<g transform="translate(0.000000,180.000000) scale(0.100000,-0.100000)"
fill="#000000" stroke="none">
<path d="M951 1346 c-19 -23 -194 -868 -183 -886 14 -23 59 -25 70 -3 16 30
184 840 180 870 -2 22 -9 29 -29 31 -14 2 -31 -4 -38 -12z"/>
<path d="M455 1058 c-113 -97 -155 -139 -155 -155 0 -27 294 -282 325 -283 26
0 45 18 45 42 0 10 -54 64 -131 129 -104 90 -128 114 -117 124 7 6 60 51 118
100 113 95 130 112 130 131 0 17 -28 44 -45 44 -8 0 -84 -60 -170 -132z"/>
<path d="M1145 1170 c-26 -29 -15 -44 110 -150 61 -51 116 -98 123 -105 11
-10 -11 -34 -117 -124 -72 -61 -131 -116 -131 -122 0 -24 22 -49 43 -49 33 0
327 255 327 284 0 16 -41 56 -156 154 -85 73 -161 132 -168 132 -7 0 -21 -9
-31 -20z"/>
</g>
</svg>
