<?xml version="1.0" standalone="no"?>
<!DOCTYPE svg PUBLIC "-//W3C//DTD SVG 20010904//EN"
 "http://www.w3.org/TR/2001/REC-SVG-20010904/DTD/svg10.dtd">
<svg version="1.0" xmlns="http://www.w3.org/2000/svg"
 width="276.000000pt" height="276.000000pt" viewBox="0 0 276.000000 276.000000"
 preserveAspectRatio="xMidYMid meet">
<metadata>
Created by potrace 1.11, written by Peter Selinger 2001-2013
</metadata>
<g transform="translate(0.000000,276.000000) scale(0.100000,-0.100000)"
fill="#000000" stroke="none">
<path d="M0 1730 c0 -680 3 -1030 10 -1030 6 0 10 -37 10 -91 l0 -92 553 8
c303 5 559 7 567 6 8 -2 372 -5 807 -7 l793 -5 0 90 c0 54 4 91 10 91 7 0 10
350 10 1030 l0 1030 -1380 0 -1380 0 0 -1030z m1468 397 c6 -5 28 -37 48 -71
48 -79 153 -242 215 -331 27 -38 63 -96 79 -128 17 -32 35 -55 40 -52 6 4 10
120 10 294 0 309 2 321 50 306 20 -6 20 -12 20 -386 l0 -379 -45 0 c-36 0 -47
4 -56 23 -19 35 -135 220 -228 362 -47 72 -94 148 -105 170 -12 22 -25 40 -31
40 -6 0 -11 -108 -13 -298 l-2 -298 -36 3 -35 3 1 374 c0 205 3 377 6 382 6
10 64 0 82 -14z m-638 -332 l5 -340 148 -1 c81 -1 150 -3 152 -5 4 -5 8 -39 6
-56 -1 -10 -50 -13 -211 -13 l-210 0 0 373 c0 206 3 377 7 381 4 4 28 6 53 4
l45 -3 5 -340z m420 -1123 l0 -28 -315 1 c-322 0 -346 3 -332 39 6 14 45 16
327 16 l320 0 0 -28z m-97 -109 c-7 -2 -19 -2 -25 0 -7 3 -2 5 12 5 14 0 19
-2 13 -5z"/>
</g>
</svg>
