<?xml version="1.0" encoding="UTF-8"?><svg xmlns="http://www.w3.org/2000/svg" viewBox="0 0 50 50"><path style="line-height:normal;text-indent:0;text-align:start;text-decoration-line:none;text-decoration-style:solid;text-decoration-color:#000;text-transform:none;block-progression:tb;isolation:auto;mix-blend-mode:normal" d="M25 2C12.31 2 2 12.31 2 25s10.31 23 23 23 23-10.31 23-23S37.69 2 25 2zm0 2c11.61 0 21 9.39 21 21s-9.39 21-21 21S4 36.61 4 25 13.39 4 25 4zm-13.4 9c-.884 0-1.6.716-1.6 1.6v5.8a1.6 1.6 0 0 0 1.6 1.6h3.9v-2h-2.9a.6.6 0 0 1-.6-.6v-3.8a.6.6 0 0 1 .6-.6h3.8a.6.6 0 0 1 .6.6v7.8a.6.6 0 0 1-.6.6H10v2h7.4c.884 0 1.6-.716 1.6-1.6v-9.8a1.6 1.6 0 0 0-1.6-1.6h-5.8zm10.5 0c-.882 0-1.6.718-1.6 1.6v5.8c0 .882.718 1.6 1.6 1.6h5.8c.882 0 1.6-.718 1.6-1.6v-5.8c0-.882-.718-1.6-1.6-1.6h-5.8zm10.5 0c-.884 0-1.6.716-1.6 1.6v5.8a1.6 1.6 0 0 0 1.6 1.6h3.9v-2h-2.9a.6.6 0 0 1-.6-.6v-3.8a.6.6 0 0 1 .6-.6h3.8a.6.6 0 0 1 .6.6v7.8a.6.6 0 0 1-.6.6H31v2h7.4c.884 0 1.6-.716 1.6-1.6v-9.8a1.6 1.6 0 0 0-1.6-1.6h-5.8zm-9.5 2h3.8a.6.6 0 0 1 .6.6v3.8a.6.6 0 0 1-.6.6h-3.8a.6.6 0 0 1-.6-.6v-3.8a.6.6 0 0 1 .6-.6zM11.6 28a1.6 1.6 0 0 0-1.6 1.6v5.8a1.6 1.6 0 0 0 1.6 1.6h5.9v-2h-4.9a.6.6 0 0 1-.6-.6v-3.8a.6.6 0 0 1 .6-.6h4.9v-2h-5.9zm9 0c-.882 0-1.6.718-1.6 1.6v5.8c0 .882.718 1.6 1.6 1.6h5.8c.882 0 1.6-.718 1.6-1.6v-5.8c0-.882-.718-1.6-1.6-1.6h-5.8zm10.5 0a1.6 1.6 0 0 0-1.6 1.6V37h2v-6.4a.6.6 0 0 1 .6-.6h1.65v7h2v-6.4a.6.6 0 0 1 .6-.6H38v7h2v-9h-8.9zm-9.5 2h3.8a.6.6 0 0 1 .6.6v3.8a.6.6 0 0 1-.6.6h-3.8a.6.6 0 0 1-.6-.6v-3.8a.6.6 0 0 1 .6-.6z" font-weight="400" font-family="sans-serif" white-space="normal" overflow="visible"/><metadata><rdf:RDF xmlns:rdf="http://www.w3.org/1999/02/22-rdf-syntax-ns#" xmlns:rdfs="http://www.w3.org/2000/01/rdf-schema#" xmlns:dc="http://purl.org/dc/elements/1.1/"><rdf:Description about="https://iconscout.com/legal#licenses" dc:title="gog,galaxy" dc:description="gog,galaxy" dc:publisher="Iconscout" dc:date="2017-12-09" dc:format="image/svg+xml" dc:language="en"><dc:creator><rdf:Bag><rdf:li>Icons8</rdf:li></rdf:Bag></dc:creator></rdf:Description></rdf:RDF></metadata></svg>